<svg xmlns="http://www.w3.org/2000/svg" viewBox="0 0 200 140" fill="none" role="img" aria-label="Pelican Chem">
  <defs>
    <linearGradient id="hexFill" x1="0%" y1="0%" x2="100%" y2="100%">
      <stop offset="0%" stop-color="#F4F7FB"/>
      <stop offset="40%" stop-color="#C5CED9"/>
      <stop offset="100%" stop-color="#8A98AA"/>
    </linearGradient>
    <linearGradient id="hexEdge" x1="0%" y1="0%" x2="0%" y2="100%">
      <stop offset="0%" stop-color="#FFFFFF"/>
      <stop offset="100%" stop-color="#6B7A8F"/>
    </linearGradient>
    <linearGradient id="pFill" x1="0%" y1="0%" x2="100%" y2="100%">
      <stop offset="0%" stop-color="#4DA3FF"/>
      <stop offset="100%" stop-color="#0A3A7A"/>
    </linearGradient>
    <linearGradient id="wordFill" x1="0%" y1="100%" x2="0%" y2="0%">
      <stop offset="0%" stop-color="#0A3A7A"/>
      <stop offset="50%" stop-color="#1E6FD9"/>
      <stop offset="100%" stop-color="#7DD3FC"/>
    </linearGradient>
    <linearGradient id="arcFill" x1="0%" y1="0%" x2="100%" y2="0%">
      <stop offset="0%" stop-color="#1E6FD9" stop-opacity="0"/>
      <stop offset="50%" stop-color="#1E6FD9"/>
      <stop offset="100%" stop-color="#1E6FD9" stop-opacity="0"/>
    </linearGradient>
    <filter id="shadow" x="-20%" y="-20%" width="140%" height="140%">
      <feDropShadow dx="0" dy="2" stdDeviation="2.5" flood-color="#0A1628" flood-opacity="0.12"/>
    </filter>
  </defs>

  <g filter="url(#shadow)" transform="translate(52 4)">
    <path
      d="M48 4 L84 24.8 V65.2 L48 86 L12 65.2 V24.8 Z"
      fill="url(#hexFill)"
      stroke="url(#hexEdge)"
      stroke-width="2.5"
    />
    <path
      d="M48 12 L76 29 V61 L48 78 L20 61 V29 Z"
      fill="none"
      stroke="#FFFFFF"
      stroke-opacity="0.5"
      stroke-width="1"
    />
    <path
      d="M30 24 H54 C62.8 24 69 29.8 69 38 C69 46.2 62.8 52 54 52 H42 V66 H30 Z M42 33 V43 H53 C56.6 43 59 41 59 38 C59 35 56.6 33 53 33 Z"
      fill="url(#pFill)"
    />
    <g transform="translate(46 40)">
      <path d="M0 7 L7 2.5 L14 7 L7 11.5 Z" fill="#BAE6FD"/>
      <path d="M7 2.5 L7 11.5 L14 7 L7 2.5" fill="#38BDF8"/>
      <path d="M0 7 L7 11.5 L7 2.5 L0 7" fill="#0EA5E9"/>
      <path d="M0 7 L7 11.5 L14 7 L7 2.5 L0 7" fill="none" stroke="#E0F2FE" stroke-width="0.5"/>
    </g>
  </g>

  <text
    x="100"
    y="118"
    text-anchor="middle"
    fill="url(#wordFill)"
    font-family="Arial, Helvetica, sans-serif"
    font-size="28"
    font-weight="700"
  >
    Pelican
  </text>
  <path
    d="M44 128 Q100 138 156 128"
    stroke="url(#arcFill)"
    stroke-width="2"
    fill="none"
    stroke-linecap="round"
  />
</svg>
